Coordinates
version=1
nRows=12
nColumns=24
inDegrees=yes

Units are S.I. units (second, meters, Newtons, ...)
Angles are in degrees.

endheader
time	pelvis_tilt	pelvis_list	pelvis_rotation	pelvis_tx	pelvis_ty	pelvis_tz	hip_flexion_r	hip_adduction_r	hip_rotation_r	knee_angle_r	ankle_angle_r	subtalar_angle_r	mtp_angle_r	hip_flexion_l	hip_adduction_l	hip_rotation_l	knee_angle_l	ankle_angle_l	subtalar_angle_l	mtp_angle_l	lumbar_extension	lumbar_bending	lumbar_rotation
      0.83733333	      3.18445846	      0.86762808	      2.17081255	     -0.17782508	      1.05715998	      0.29514067	    -17.35312708	      2.11549018	     -3.86709898	     -8.27250857	     19.28832623	      0.84688556	      4.11673154	     20.47902622	      0.87706235	      0.94912977	     -4.92699630	      4.42432352	      6.49861132	      5.44070185	    -16.23682095	      2.22933920	      0.83375215
      0.84150000	      3.20666518	      0.92510367	      2.14420928	     -0.17203036	      1.05626944	      0.29478681	    -17.52373828	      2.02148067	     -3.96302910	     -8.70154686	     19.48867266	      1.01821281	      4.10609875	     20.55531311	      1.03637483	      1.17515326	     -5.44115250	      4.27483269	      6.31686442	      5.48432145	    -16.19951859	      2.10200377	      0.81209140
      0.84566667	      3.24203144	      0.99132349	      2.10411891	     -0.16621799	      1.05545683	      0.29448458	    -17.71897670	      1.92367917	     -3.93964959	     -9.10684654	     19.58894580	      0.98480458	      4.10808414	     20.62883767	      1.19400238	      1.33899938	     -6.03694150	      4.13187764	      6.24082299	      5.49396915	    -16.20264330	      1.95613149	      0.80148551
      0.84983333	      3.24771526	      1.06773073	      2.06559607	     -0.16035920	      1.05462347	      0.29413016	    -17.83434772	      1.79493691	     -4.09434808	     -9.62472234	     19.81311006	      1.31395990	      4.13116885	     20.71053289	      1.37291850	      1.62723941	     -6.63272252	      3.89372875	      5.92361677	      5.55751852	    -16.13370715	      1.77992081	      0.77961442
      0.85400000	      3.27430207	      1.14851119	      2.02053576	     -0.15448914	      1.05388755	      0.29381111	    -17.98222242	      1.66901869	     -4.14123080	    -10.11816392	     19.94039840	      1.43621825	      4.16474832	     20.78277256	      1.54836536	      1.85833409	     -7.30153780	      3.66434443	      5.69579274	      5.61789776	    -16.10858040	      1.59134692	      0.76322227
      0.85816667	      3.28161724	      1.23280103	      1.97025000	     -0.14857738	      1.05317465	      0.29348239	    -18.09480060	      1.53230050	     -4.19663067	    -10.64351298	     20.02459902	      1.56422505	      4.21238794	     20.87997279	      1.72500288	      2.06826430	     -8.01985329	      3.40501565	      5.45508074	      5.67356973	    -16.05283643	      1.40530222	      0.75624002
      0.86233333	      3.28143306	      1.31156728	      1.92319080	     -0.14263668	      1.05249466	      0.29311558	    -18.18807030	      1.39638295	     -4.26935191	    -11.19169713	     20.07536160	      1.73216211	      4.29043858	     20.99084578	      1.89921965	      2.28308528	     -8.78245738	      3.11168563	      5.15716944	      5.73920663	    -15.97015226	      1.23682152	      0.75360022
      0.86650000	      3.27894583	      1.39505910	      1.86735791	     -0.13668242	      1.05187548	      0.29276590	    -18.25908939	      1.25036307	     -4.31990846	    -11.78248906	     20.09640910	      1.86721985	      4.38351425	     21.10143715	      2.07213296	      2.49251761	     -9.56858574	      2.82453233	      4.87666956	      5.79512860	    -15.89994247	      1.03862999	      0.75228457
      0.87066667	      3.26220315	      1.47096589	      1.81166515	     -0.13069589	      1.05128088	      0.29239151	    -18.29984639	      1.10609775	     -4.38099097	    -12.40176470	     20.07109841	      2.01327356	      4.49374877	     21.23244753	      2.23644298	      2.69495227	    -10.39112291	      2.53338518	      4.58214230	      5.84194210	    -15.80587861	      0.86149180	      0.75603259
      0.87483333	      3.26070450	      1.56233955	      1.74584843	     -0.12468408	      1.05078522	      0.29202392	    -18.33961669	      0.93688155	     -4.45497067	    -13.05797418	     20.01686943	      2.19689393	      4.64079766	     21.33701075	      2.41054431	      2.88084886	    -11.21666006	      2.22441298	      4.24693710	      5.88427667	    -15.72466671	      0.66067186	      0.76458405
      0.87900000	      3.25041090	      1.63712655	      1.68496239	     -0.11865842	      1.05032340	      0.29161358	    -18.35073793	      0.77966588	     -4.53087157	    -13.74871228	     19.91087966	      2.37821501	      4.81233730	     21.45751150	      2.56849605	      3.05900040	    -12.07191083	      1.94243614	      3.93215278	      5.91665875	    -15.63074203	      0.48206602	      0.77467010
      0.88316667	      3.23840412	      1.71583380	      1.61699290	     -0.11260398	      1.04992742	      0.29120045	    -18.33957067	      0.60924329	     -4.61644532	    -14.47898943	     19.76444626	      2.57835881	      5.01611099	     21.57205163	      2.72504506	      3.21916687	    -12.92832826	      1.66951707	      3.61105513	      5.93791372	    -15.52804887	      0.29840895	      0.79080727
